<svg xmlns="http://www.w3.org/2000/svg" width="128" height="31" viewBox="0 0 128 31" fill="none"><g clip-path="url(#clip0_1_747)"><path d="M0.75769 11.0973L12.2588 11.0997L19.2522 11.1009V4.00629L0.75769 11.0973Z" fill="#FF9D28"></path><path d="M19.2522 4.00643V29.0539L27.9869 0.656372L19.2522 4.00643Z" fill="#68C5ED"></path><path d="M19.2522 11.1009L12.2588 11.0997L19.2522 29.0538V11.1009Z" fill="#044D80"></path><path d="M0.75769 11.0974L14.0522 15.7065L12.2588 11.0998L0.75769 11.0974Z" fill="#E54747"></path><path d="M43.1254 22.4605C43.0239 22.5643 42.855 22.6939 42.6187 22.8495C42.382 23.0052 42.074 23.1608 41.6941 23.3166C41.3141 23.472 40.8494 23.6058 40.3008 23.7187C39.7517 23.8308 39.1229 23.8871 38.4136 23.8871C37.0455 23.8871 35.8632 23.6622 34.867 23.2128C33.8703 22.7635 33.047 22.1361 32.397 21.3322C31.7468 20.5279 31.2698 19.577 30.9658 18.4786C30.6618 17.3805 30.5099 16.1744 30.5099 14.86C30.5099 13.546 30.6745 12.3308 31.0039 11.2154C31.3331 10.0999 31.8271 9.13621 32.4857 8.32302C33.1444 7.51045 33.9677 6.87482 34.9557 6.41639C35.9436 5.95848 37.1046 5.729 38.4388 5.729C39.0975 5.729 39.6928 5.78973 40.2248 5.91056C40.7568 6.03166 41.2211 6.17445 41.6182 6.33859C42.0147 6.50316 42.3442 6.67574 42.6061 6.85739C42.8677 7.03895 43.0661 7.19063 43.2015 7.31129C43.3535 7.44999 43.4841 7.61412 43.5941 7.80413C43.7038 7.99467 43.7588 8.20219 43.7588 8.42678C43.7588 8.77292 43.6321 9.11861 43.3788 9.46439C43.1255 9.81052 42.8468 10.1304 42.5427 10.4242C42.3401 10.2167 42.1121 10.0052 41.8589 9.78874C41.6055 9.5726 41.3225 9.38259 41.0102 9.21802C40.6975 9.05388 40.3428 8.91562 39.9462 8.80297C39.5492 8.69067 39.106 8.63431 38.6163 8.63431C37.755 8.63431 37.0331 8.81186 36.4504 9.16609C35.8678 9.52076 35.3991 9.9832 35.0444 10.5539C34.6898 11.1247 34.4365 11.7775 34.2844 12.5124C34.1325 13.2476 34.0565 13.9955 34.0565 14.7563C34.0565 15.5693 34.1325 16.3475 34.2844 17.0908C34.4364 17.8344 34.698 18.4918 35.0698 19.0622C35.441 19.6329 35.9267 20.0913 36.5264 20.437C37.1256 20.7832 37.8729 20.9559 38.7683 20.9559C39.2408 20.9559 39.6759 20.8955 40.0729 20.7744C40.4694 20.6535 40.8201 20.5063 41.1241 20.3331C41.4281 20.1606 41.6942 19.9792 41.9221 19.7887C42.1501 19.5985 42.3401 19.4344 42.4921 19.2957C42.5934 19.417 42.7114 19.5641 42.8467 19.7368C42.9828 19.9113 43.1096 20.0932 43.2267 20.2816C43.3447 20.472 43.446 20.6621 43.5307 20.852C43.615 21.0427 43.6573 21.2153 43.6573 21.3708C43.6573 21.5959 43.615 21.786 43.5307 21.9416C43.4459 22.0973 43.3109 22.2704 43.1254 22.4605ZM56.1802 20.471C56.1802 21.8455 56.3753 22.8459 56.7663 23.4722C56.4605 23.5937 56.1758 23.6808 55.9125 23.733C55.6489 23.7853 55.373 23.8113 55.0843 23.8113C54.4727 23.8113 54.0096 23.6895 53.6954 23.446C53.3809 23.2026 53.1813 22.8547 53.0966 22.4021C52.7226 22.8027 52.2299 23.1417 51.6184 23.4202C51.0068 23.698 50.2589 23.8376 49.3757 23.8376C48.917 23.8376 48.4583 23.7724 47.9995 23.6428C47.5407 23.5121 47.1243 23.3 46.7507 23.0056C46.3767 22.7105 46.0711 22.3159 45.8333 21.8216C45.5951 21.3273 45.4764 20.7248 45.4764 20.0138C45.4764 19.1294 45.6844 18.4094 46.1008 17.8547C46.517 17.2995 47.0394 16.8617 47.6683 16.5408C48.2966 16.2202 48.9763 15.9995 49.7071 15.8778C50.4374 15.7563 51.1088 15.6785 51.7203 15.6433C51.9243 15.6262 52.1238 15.6172 52.3193 15.6172H52.8672V15.1422C52.8672 14.4735 52.6928 13.9984 52.3447 13.7171C51.9962 13.4357 51.4312 13.2947 50.6499 13.2947C49.9193 13.2947 49.2694 13.4165 48.7003 13.66C48.1309 13.9038 47.5746 14.1819 47.0311 14.4951C46.793 14.1994 46.6017 13.8733 46.4577 13.5165C46.3132 13.1601 46.241 12.8947 46.241 12.7205C46.241 12.4771 46.3724 12.2422 46.6361 12.0159C46.8993 11.7901 47.2605 11.5853 47.7192 11.4027C48.178 11.22 48.7044 11.0724 49.2994 10.959C49.8938 10.846 50.5226 10.7894 51.1853 10.7894C52.1027 10.7894 52.88 10.8852 53.517 11.0765C54.1542 11.2681 54.6723 11.5637 55.0717 11.9637C55.4707 12.3642 55.7554 12.8641 55.9254 13.4643C56.095 14.0645 56.1803 14.7651 56.1803 15.565L56.1802 20.471ZM52.918 17.4439H52.5613C52.4421 17.4439 52.3231 17.4529 52.2045 17.4701C51.7795 17.5051 51.359 17.5572 50.943 17.6265C50.5265 17.6963 50.1569 17.8181 49.8345 17.9919C49.5115 18.166 49.2483 18.3924 49.0444 18.6704C48.8405 18.9489 48.7385 19.3057 48.7385 19.7405C48.7385 20.2276 48.8743 20.6406 49.1462 20.9799C49.4178 21.3193 49.8766 21.4889 50.5225 21.4889C50.845 21.4889 51.151 21.4457 51.44 21.3582C51.7287 21.2716 51.9835 21.1584 52.2045 21.0192C52.4251 20.88 52.5995 20.7279 52.727 20.5624C52.8543 20.3973 52.9181 20.2452 52.9181 20.1058L52.918 17.4439ZM62.5256 12.3029C62.7964 11.9726 63.2201 11.6374 63.7958 11.2981C64.3716 10.9589 65.0999 10.7892 65.9807 10.7892C66.6076 10.7892 67.2045 10.8981 67.7721 11.1154C68.339 11.3331 68.8431 11.6855 69.2835 12.1724C69.724 12.6596 70.0753 13.3035 70.3381 14.1035C70.6005 14.904 70.7319 15.8871 70.7319 17.0523C70.7319 18.4093 70.5792 19.5275 70.2745 20.4058C69.9694 21.2847 69.5759 21.9806 69.0934 22.4937C68.6107 23.0069 68.0726 23.3679 67.4802 23.5766C66.8872 23.7853 66.2943 23.8898 65.7017 23.8898C65.2105 23.8898 64.7826 23.8332 64.4188 23.7202C64.0544 23.6069 63.7454 23.4812 63.4914 23.3418C63.2373 23.2027 63.0427 23.0638 62.9073 22.9242C62.7719 22.7852 62.687 22.6892 62.6533 22.637V29.0521H59.1872V11.1545C59.2725 11.1375 59.3752 11.1199 59.4954 11.1024C59.5982 11.0854 59.718 11.0722 59.855 11.0632C59.9919 11.0547 60.1546 11.0503 60.3428 11.0503C60.9074 11.0503 61.3869 11.1461 61.7806 11.3373C62.1743 11.529 62.4229 11.8506 62.5256 12.3029ZM67.1129 17.1306C67.1129 16.6087 67.0707 16.1219 66.9863 15.6693C66.9019 15.2172 66.7625 14.8256 66.5682 14.495C66.3739 14.1646 66.1117 13.9078 65.7825 13.725C65.4527 13.5424 65.0518 13.4512 64.579 13.4512C63.8696 13.4512 63.3754 13.5906 63.0965 13.8686C62.8179 14.1471 62.6785 14.4518 62.6785 14.7821V20.3146C62.8135 20.454 63.0539 20.619 63.4003 20.8104C63.7469 21.002 64.1478 21.0973 64.6041 21.0973C65.4658 21.0973 66.0993 20.7497 66.5048 20.0536C66.9103 19.3578 67.1129 18.3833 67.1129 17.1306ZM73.4069 21.6194C73.2878 21.2716 73.2114 20.906 73.1776 20.5232C73.1434 20.1407 73.1266 19.7581 73.1266 19.3748V7.26616C73.2453 7.24909 73.3727 7.23158 73.5089 7.21398C73.6274 7.1969 73.7549 7.18392 73.891 7.17486C74.0269 7.16632 74.1627 7.16188 74.2987 7.16188C74.5704 7.16188 74.8425 7.18802 75.1144 7.24011C75.3859 7.29239 75.6324 7.39676 75.8536 7.55323C76.0742 7.70978 76.2525 7.92314 76.3886 8.1926C76.5245 8.4625 76.5925 8.81491 76.5925 9.24947V11.1023H80.1605V13.7382H76.5925V19.3032C76.5925 20.5168 77.0767 21.1234 78.0452 21.1234C78.283 21.1234 78.5079 21.0845 78.7206 21.006C78.9328 20.9277 79.1239 20.8409 79.294 20.7451C79.4637 20.6495 79.6125 20.5495 79.74 20.445C79.8674 20.3405 79.9566 20.2624 80.0075 20.2102C80.2624 20.5932 80.4575 20.9247 80.5937 21.2044C80.7295 21.4845 80.7975 21.7474 80.7975 21.993C80.7975 22.2215 80.7085 22.4456 80.53 22.6649C80.3514 22.8843 80.1006 23.0866 79.778 23.2709C79.4552 23.4551 79.0646 23.6044 78.6058 23.7186C78.1471 23.8328 77.6457 23.8899 77.1022 23.8899C76.0485 23.8899 75.2289 23.681 74.6428 23.2636C74.0567 22.8459 73.6445 22.2978 73.4069 21.6194ZM88.9387 21.2801C89.3648 21.2801 89.7399 21.2324 90.0641 21.1365C90.3878 21.0412 90.6776 20.9236 90.9334 20.7844C91.189 20.6454 91.4109 20.4931 91.5985 20.3277C91.7859 20.1626 91.9564 20.0104 92.1102 19.8709C92.3145 20.1317 92.5275 20.467 92.7493 20.8755C92.9708 21.2847 93.0818 21.6194 93.0818 21.8802C93.0818 22.2631 92.8692 22.6111 92.4448 22.9242C92.088 23.2027 91.5821 23.442 90.9284 23.6417C90.2741 23.8417 89.5051 23.9419 88.622 23.9419C87.823 23.9419 87.0374 23.8376 86.2646 23.6287C85.4914 23.4201 84.8031 23.0546 84.2004 22.5326C83.597 22.0109 83.1085 21.3107 82.7348 20.432C82.361 19.5535 82.1742 18.4446 82.1742 17.1046C82.1742 16.0085 82.3399 15.065 82.671 14.2732C83.0024 13.4817 83.444 12.8249 83.9966 12.303C84.5483 11.781 85.1727 11.3986 85.8695 11.1546C86.566 10.9113 87.2797 10.7893 88.0104 10.7893C88.9617 10.7893 89.7687 10.9419 90.4313 11.246C91.0941 11.5506 91.6331 11.9595 92.0497 12.4726C92.4657 12.9858 92.7673 13.573 92.9543 14.2341C93.141 14.8954 93.2347 15.5911 93.2347 16.3218V16.6871C93.2347 16.8266 93.2303 16.9741 93.2219 17.1307C93.2132 17.2874 93.2049 17.4399 93.1966 17.5874C93.1877 17.7355 93.1749 17.8528 93.1584 17.9398H85.6402C85.7083 18.8967 85.9981 19.6925 86.5095 20.3277C87.0206 20.9629 87.8304 21.2801 88.9387 21.2801ZM90.1 15.9824C90.1 15.1474 89.9418 14.4689 89.6257 13.9469C89.3095 13.4251 88.7411 13.164 87.9214 13.164C87.2204 13.164 86.6609 13.412 86.2424 13.9078C85.8235 14.4037 85.6146 15.0952 85.6146 15.9823L90.1 15.9824ZM99.2663 12.3688C99.368 12.2136 99.5039 12.0411 99.674 11.851C99.8436 11.6611 100.052 11.4885 100.298 11.3332C100.545 11.1779 100.816 11.0482 101.114 10.9447C101.411 10.8411 101.73 10.7893 102.07 10.7893C102.274 10.7893 102.49 10.8068 102.719 10.8411C102.949 10.8757 103.161 10.9406 103.356 11.0352C103.552 11.1302 103.709 11.2594 103.828 11.4234C103.947 11.5874 104.006 11.79 104.006 12.0314C104.006 12.411 103.913 12.8469 103.726 13.3391C103.539 13.8317 103.352 14.2517 103.166 14.5995C102.876 14.356 102.588 14.1689 102.299 14.0384C102.01 13.908 101.67 13.8426 101.28 13.8426C100.753 13.8426 100.311 13.9997 99.9545 14.3136C99.5974 14.6276 99.4191 15.0027 99.4191 15.439V23.887H95.9533V11.1545C96.038 11.1375 96.14 11.1199 96.259 11.1024C96.3609 11.0854 96.4798 11.0722 96.6158 11.0632C96.7517 11.0547 96.9129 11.0503 97.1 11.0503C97.6436 11.0503 98.115 11.1582 98.5144 11.3736C98.9134 11.5888 99.1644 11.9208 99.2663 12.3688ZM109.12 12.3688C109.222 12.2136 109.358 12.0411 109.528 11.851C109.698 11.6611 109.906 11.4885 110.153 11.3332C110.399 11.1779 110.671 11.0482 110.968 10.9447C111.265 10.8411 111.584 10.7893 111.924 10.7893C112.128 10.7893 112.344 10.8068 112.574 10.8411C112.803 10.8757 113.015 10.9406 113.211 11.0352C113.406 11.1302 113.563 11.2594 113.682 11.4234C113.801 11.5874 113.861 11.79 113.861 12.0314C113.861 12.411 113.767 12.8469 113.58 13.3391C113.393 13.8317 113.206 14.2517 113.02 14.5995C112.731 14.356 112.442 14.1689 112.153 14.0384C111.864 13.908 111.524 13.8426 111.134 13.8426C110.607 13.8426 110.165 13.9997 109.809 14.3136C109.452 14.6276 109.273 15.0027 109.273 15.439V23.887H105.807V11.1545C105.892 11.1375 105.994 11.1199 106.113 11.1024C106.215 11.0854 106.334 11.0722 106.47 11.0632C106.606 11.0547 106.767 11.0503 106.954 11.0503C107.498 11.0503 107.969 11.1582 108.368 11.3736C108.768 11.5888 109.018 11.9208 109.12 12.3688ZM125.66 20.471C125.66 21.8455 125.856 22.8459 126.247 23.4722C125.941 23.5937 125.656 23.6808 125.393 23.733C125.129 23.7853 124.853 23.8113 124.565 23.8113C123.953 23.8113 123.49 23.6895 123.176 23.446C122.861 23.2026 122.662 22.8547 122.577 22.4021C122.203 22.8027 121.71 23.1417 121.099 23.4202C120.487 23.698 119.739 23.8376 118.856 23.8376C118.397 23.8376 117.939 23.7724 117.48 23.6428C117.021 23.5121 116.604 23.3 116.231 23.0056C115.857 22.7105 115.551 22.3159 115.313 21.8216C115.075 21.3273 114.957 20.7248 114.957 20.0138C114.957 19.1294 115.164 18.4094 115.581 17.8547C115.997 17.2995 116.52 16.8617 117.149 16.5408C117.777 16.2202 118.456 15.9995 119.187 15.8778C119.917 15.7563 120.589 15.6785 121.201 15.6433C121.405 15.6262 121.604 15.6172 121.8 15.6172H122.347V15.1422C122.347 14.4735 122.173 13.9984 121.825 13.7171C121.476 13.4357 120.911 13.2947 120.13 13.2947C119.4 13.2947 118.75 13.4165 118.181 13.66C117.611 13.9038 117.055 14.1819 116.511 14.4951C116.273 14.1994 116.082 13.8733 115.938 13.5165C115.793 13.1601 115.721 12.8947 115.721 12.7205C115.721 12.4771 115.853 12.2422 116.116 12.0159C116.38 11.7901 116.741 11.5853 117.199 11.4027C117.658 11.22 118.185 11.0724 118.779 10.959C119.374 10.846 120.003 10.7894 120.665 10.7894C121.583 10.7894 122.36 10.8852 122.997 11.0765C123.634 11.2681 124.152 11.5637 124.552 11.9637C124.951 12.3642 125.235 12.8641 125.406 13.4643C125.575 14.0645 125.66 14.7651 125.66 15.565V20.471ZM122.398 17.4439H122.041C121.922 17.4439 121.803 17.4529 121.685 17.4701C121.26 17.5051 120.839 17.5572 120.423 17.6265C120.007 17.6963 119.637 17.8181 119.315 17.9919C118.992 18.166 118.728 18.3924 118.525 18.6704C118.321 18.9489 118.219 19.3057 118.219 19.7405C118.219 20.2276 118.355 20.6406 118.627 20.9799C118.898 21.3193 119.357 21.4889 120.003 21.4889C120.325 21.4889 120.631 21.4457 120.92 21.3582C121.209 21.2716 121.464 21.1584 121.685 21.0192C121.905 20.88 122.08 20.7279 122.207 20.5624C122.335 20.3973 122.398 20.2452 122.398 20.1058L122.398 17.4439Z" fill="white"></path></g><defs><clipPath id="clip0_1_747"><rect width="127.619" height="30.0552" fill="white"></rect></clipPath></defs></svg>