<svg xmlns="http://www.w3.org/2000/svg" width="56" height="56" viewBox="0 0 56 56" fill="none"><rect width="56" height="56" rx="28" fill="#08A8E4"></rect><path d="M29.4166 32.958C29.4166 36.188 31.825 39.9138 33.5391 42.1663H19.5C17.9275 42.1663 16.6666 40.9055 16.6666 39.333V16.6663C16.6666 15.9149 16.9651 15.1942 17.4965 14.6629C18.0278 14.1315 18.7485 13.833 19.5 13.833H20.9166V23.7497L24.4583 21.6247L28 23.7497V13.833H36.5C37.2514 13.833 37.9721 14.1315 38.5034 14.6629C39.0348 15.1942 39.3333 15.9149 39.3333 16.6663V25.478C38.625 25.2797 37.9166 25.1663 37.2083 25.1663C32.9583 25.1663 29.4166 28.708 29.4166 32.958ZM42.1666 32.958C42.1666 36.6413 37.2083 42.1663 37.2083 42.1663C37.2083 42.1663 32.25 36.6413 32.25 32.958C32.25 30.2663 34.5166 27.9997 37.2083 27.9997C39.9 27.9997 42.1666 30.2663 42.1666 32.958ZM38.9083 33.0997C38.9083 32.2497 38.0583 31.3997 37.2083 31.3997C36.3583 31.3997 35.5083 32.108 35.5083 33.0997C35.5083 33.9497 36.2166 34.7997 37.2083 34.7997C38.2 34.7997 39.05 33.9497 38.9083 33.0997Z" fill="white"></path></svg>