<svg xmlns="http://www.w3.org/2000/svg" width="121" height="20" viewBox="0 0 121 20" fill="none"><path d="M9.09748 1.89137C9.45972 1.13224 10.5403 1.13224 10.9025 1.89137L12.6464 5.54598C12.7922 5.85149 13.0826 6.06251 13.4182 6.10675L17.4329 6.63595C18.2668 6.74588 18.6007 7.77355 17.9907 8.35264L15.0538 11.1405C14.8083 11.3736 14.6974 11.715 14.759 12.0479L15.4963 16.0295C15.6494 16.8566 14.7752 17.4917 14.036 17.0905L10.477 15.1589C10.1795 14.9974 9.8205 14.9974 9.52298 15.1589L5.96402 17.0905C5.22476 17.4917 4.35057 16.8566 4.50372 16.0295L5.241 12.0479C5.30264 11.715 5.1917 11.3736 4.94619 11.1405L2.00934 8.35264C1.39931 7.77355 1.73322 6.74588 2.56712 6.63595L6.58176 6.10675C6.91737 6.06251 7.20781 5.85149 7.35359 5.54598L9.09748 1.89137Z" fill="#F28F1D"></path><path d="M34.0975 1.89137C34.4597 1.13224 35.5403 1.13224 35.9025 1.89137L37.6464 5.54598C37.7922 5.85149 38.0826 6.06251 38.4182 6.10675L42.4329 6.63595C43.2668 6.74588 43.6007 7.77355 42.9907 8.35264L40.0538 11.1405C39.8083 11.3736 39.6974 11.715 39.759 12.0479L40.4963 16.0295C40.6494 16.8566 39.7752 17.4917 39.036 17.0905L35.477 15.1589C35.1795 14.9974 34.8205 14.9974 34.523 15.1589L30.964 17.0905C30.2248 17.4917 29.3506 16.8566 29.5037 16.0295L30.241 12.0479C30.3026 11.715 30.1917 11.3736 29.9462 11.1405L27.0093 8.35264C26.3993 7.77355 26.7332 6.74588 27.5671 6.63595L31.5818 6.10675C31.9174 6.06251 32.2078 5.85149 32.3536 5.54598L34.0975 1.89137Z" fill="#F28F1D"></path><path d="M59.6059 1.78442C59.9747 1.04836 61.0253 1.04836 61.3941 1.78442L63.2848 5.55811C63.4344 5.85661 63.723 6.06078 64.0543 6.10237L68.3225 6.63821C69.1712 6.74476 69.5031 7.79855 68.8685 8.37221L65.8119 11.1356C65.552 11.3706 65.4341 11.7244 65.5009 12.0683L66.2775 16.0624C66.437 16.883 65.5792 17.5255 64.8367 17.1416L60.9592 15.1374C60.6712 14.9885 60.3288 14.9885 60.0408 15.1374L56.1633 17.1416C55.4207 17.5255 54.563 16.883 54.7225 16.0624L55.4991 12.0683C55.5659 11.7244 55.448 11.3706 55.1881 11.1356L52.1315 8.37221C51.4969 7.79855 51.8288 6.74476 52.6775 6.63821L56.9457 6.10237C57.277 6.06078 57.5656 5.85661 57.7152 5.55811L59.6059 1.78442Z" fill="#F28F1D"></path><path d="M85.0975 1.89137C85.4597 1.13224 86.5403 1.13224 86.9025 1.89137L88.6464 5.54598C88.7922 5.85149 89.0826 6.06251 89.4182 6.10675L93.4329 6.63595C94.2668 6.74588 94.6007 7.77355 93.9907 8.35264L91.0538 11.1405C90.8083 11.3736 90.6974 11.715 90.759 12.0479L91.4963 16.0295C91.6494 16.8566 90.7752 17.4917 90.036 17.0905L86.477 15.1589C86.1795 14.9974 85.8205 14.9974 85.523 15.1589L81.964 17.0905C81.2248 17.4917 80.3506 16.8566 80.5037 16.0295L81.241 12.0479C81.3026 11.715 81.1917 11.3736 80.9462 11.1405L78.0093 8.35264C77.3993 7.77355 77.7332 6.74588 78.5671 6.63595L82.5818 6.10675C82.9174 6.06251 83.2078 5.85149 83.3536 5.54598L85.0975 1.89137Z" fill="#F28F1D"></path><path d="M110.097 1.89137C110.46 1.13224 111.54 1.13224 111.903 1.89137L113.646 5.54598C113.792 5.85149 114.083 6.06251 114.418 6.10675L118.433 6.63595C119.267 6.74588 119.601 7.77355 118.991 8.35264L116.054 11.1405C115.808 11.3736 115.697 11.715 115.759 12.0479L116.496 16.0295C116.649 16.8566 115.775 17.4917 115.036 17.0905L111.477 15.1589C111.18 14.9974 110.82 14.9974 110.523 15.1589L106.964 17.0905C106.225 17.4917 105.351 16.8566 105.504 16.0295L106.241 12.0479C106.303 11.715 106.192 11.3736 105.946 11.1405L103.009 8.35264C102.399 7.77355 102.733 6.74588 103.567 6.63595L107.582 6.10675C107.917 6.06251 108.208 5.85149 108.354 5.54598L110.097 1.89137Z" fill="#F28F1D"></path></svg>