<svg xmlns="http://www.w3.org/2000/svg" width="144" height="31" viewBox="0 0 144 31" fill="none"><g clip-path="url(#clip0_1_755)"><mask id="mask0_1_755" style="mask-type:luminance" maskUnits="userSpaceOnUse" x="0" y="0" width="144" height="31"><path d="M144 0.932007H0.489136V30.7524H144V0.932007Z" fill="white"></path></mask><g mask="url(#mask0_1_755)"><path d="M36.4871 14.3067L26.8105 4.63021C26.6544 4.48348 26.4483 4.40179 26.2341 4.40179C26.0199 4.40179 25.8138 4.48348 25.6578 4.63021L23.7562 6.53185L31.531 14.3067C31.607 14.3821 31.6674 14.472 31.7086 14.5709C31.7498 14.6698 31.7711 14.776 31.7711 14.8831C31.7711 14.9902 31.7498 15.0963 31.7086 15.1953C31.6674 15.2942 31.607 15.384 31.531 15.4595L23.5374 23.4531L25.439 25.3548C25.5951 25.5014 25.8012 25.5832 26.0153 25.5832C26.2296 25.5832 26.4357 25.5014 26.5917 25.3548L36.4871 15.4595C36.6337 15.3034 36.7155 15.0973 36.7155 14.8831C36.7155 14.6689 36.6337 14.4628 36.4871 14.3067Z" fill="#009C9C"></path><path d="M20.002 5.33281L19.2994 4.63021C19.1434 4.48348 18.9372 4.40179 18.723 4.40179C18.5088 4.40179 18.3027 4.48348 18.1466 4.63021L16.245 6.53185L17.5071 7.794L19.9851 10.272L22.4589 7.794L20.002 5.33281Z" fill="#40E3E3"></path><path d="M19.7663 19.7086L17.2925 22.1866L16.0304 23.4488L17.932 25.3504C18.0881 25.4972 18.2942 25.5788 18.5084 25.5788C18.7226 25.5788 18.9288 25.4972 19.0848 25.3504L19.7832 24.6478L22.2612 22.1698L19.7663 19.7086Z" fill="#40E3E3"></path><path d="M24.021 14.3067C24.1676 14.4628 24.2494 14.6689 24.2494 14.8832C24.2494 15.0973 24.1676 15.3034 24.021 15.4595L19.7675 19.7087L22.2455 22.1867L28.977 15.4553C29.0531 15.3798 29.1135 15.29 29.1546 15.191C29.1958 15.0922 29.2171 14.986 29.2171 14.8789C29.2171 14.7718 29.1958 14.6656 29.1546 14.5667C29.1135 14.4678 29.0531 14.378 28.977 14.3025L22.4811 7.81085L20.0031 10.2888L24.021 14.3067Z" fill="#1ABAB8"></path><path d="M8.23875 14.5383L14.9702 7.80674L12.4922 5.32872L11.7854 4.63033C11.6294 4.48361 11.4232 4.40192 11.209 4.40192C10.9949 4.40192 10.7887 4.48361 10.6326 4.63033L0.728948 14.5383C0.65288 14.6137 0.592506 14.7035 0.551304 14.8025C0.510103 14.9013 0.488892 15.0075 0.488892 15.1146C0.488892 15.2218 0.510103 15.3279 0.551304 15.4268C0.592506 15.5257 0.65288 15.6155 0.728948 15.691L10.4054 25.3675C10.5615 25.5142 10.7677 25.5959 10.9818 25.5959C11.1961 25.5959 11.4022 25.5142 11.5582 25.3675L12.2692 24.6649L14.7472 22.1868L8.23875 15.691C8.16268 15.6155 8.1023 15.5257 8.0611 15.4268C8.01991 15.3279 7.9987 15.2218 7.9987 15.1146C7.9987 15.0075 8.01991 14.9013 8.0611 14.8025C8.1023 14.7035 8.16268 14.6137 8.23875 14.5383Z" fill="#87F0F0"></path><path d="M15.7485 14.5382L18.723 11.5679L16.2449 9.08985L14.9827 7.8277L8.25128 14.5591C8.17522 14.6346 8.11485 14.7245 8.07364 14.8233C8.03244 14.9223 8.01123 15.0284 8.01123 15.1355C8.01123 15.2427 8.03244 15.3488 8.07364 15.4478C8.11485 15.5467 8.17522 15.6365 8.25128 15.712L14.7346 22.1867L15.9967 20.9246L18.4747 18.4466L15.7317 15.7077C15.5849 15.5517 15.5032 15.3456 15.5032 15.1313C15.5032 14.9172 15.5849 14.711 15.7317 14.5549" fill="#40E3E3"></path><path d="M15.7485 15.6908L18.4917 18.4296L21.4619 15.4594C21.5379 15.3839 21.5983 15.2941 21.6395 15.1952C21.6807 15.0963 21.7019 14.9901 21.7019 14.8829C21.7019 14.7759 21.6807 14.6697 21.6395 14.5708C21.5983 14.4719 21.5379 14.3821 21.4619 14.3066L18.723 11.5677L15.7485 14.538C15.6018 14.694 15.5201 14.9002 15.5201 15.1144C15.5201 15.3286 15.6018 15.5347 15.7485 15.6908Z" fill="#17CFCF"></path><path d="M44.2462 12.2534C44.2737 11.1584 44.4915 10.0764 44.8899 9.05602C45.2629 8.11562 45.8374 7.26834 46.5729 6.57378C47.3597 5.85606 48.2866 5.30887 49.2952 4.96665C50.5165 4.56578 51.7966 4.37377 53.0818 4.39868C54.513 4.35241 55.9402 4.57504 57.2893 5.055C58.2566 5.41213 59.1485 5.94725 59.9189 6.63269C60.5087 7.15784 60.9768 7.80539 61.2905 8.53012C61.5175 9.05854 61.6677 9.61675 61.7364 10.1877C61.7486 10.293 61.735 10.3997 61.6969 10.4986C61.6588 10.5976 61.5973 10.6857 61.5177 10.7557C61.3613 10.8979 61.1569 10.976 60.9455 10.9745H58.5809C58.3964 10.9831 58.2147 10.9265 58.0676 10.8146C57.9538 10.7229 57.8606 10.6082 57.7941 10.478C57.7521 10.4023 57.651 10.2298 57.487 9.96476C57.2702 9.6509 57.0029 9.37509 56.696 9.14857C56.2645 8.82806 55.7882 8.57289 55.2823 8.39128C54.5782 8.1463 53.8353 8.03223 53.0902 8.05471C51.8144 7.99128 50.5621 8.41373 49.5855 9.23692C49.1454 9.63928 48.7936 10.1286 48.5525 10.6739C48.3113 11.2192 48.1859 11.8086 48.1844 12.405C48.1423 13.1453 48.1255 13.9405 48.1255 14.7862C48.1255 15.6318 48.1255 16.427 48.1844 17.1675C48.2391 18.783 48.7103 19.9568 49.5855 20.6846C50.5833 21.4542 51.8233 21.842 53.0818 21.7785C53.7511 21.7838 54.4183 21.7046 55.0678 21.5429C55.6358 21.4039 56.1679 21.1458 56.6287 20.7856C57.0805 20.4159 57.4321 19.9384 57.651 19.3972C57.9112 18.7272 58.0356 18.0121 58.0171 17.2936V17.0454H54.4535C54.3496 17.0471 54.2465 17.0269 54.1509 16.9864C54.0552 16.9458 53.9691 16.8857 53.898 16.8098C53.8239 16.7386 53.7652 16.653 53.7254 16.5582C53.6856 16.4634 53.6655 16.3615 53.6667 16.2587V14.1846C53.6688 13.9762 53.7523 13.7769 53.8993 13.6292C54.0462 13.4814 54.2451 13.3969 54.4535 13.3936H61.1853C61.3937 13.3969 61.5926 13.4814 61.7395 13.6292C61.8865 13.7769 61.97 13.9762 61.9721 14.1846V17.3947C61.9842 18.495 61.7961 19.5885 61.4167 20.6215C61.0522 21.5786 60.4771 22.4413 59.7337 23.1458C58.938 23.8974 57.9914 24.4711 56.9569 24.8287C54.4379 25.6169 51.7383 25.6169 49.2194 24.8287C48.2146 24.4961 47.2933 23.9509 46.5182 23.23C45.7915 22.5185 45.2286 21.657 44.869 20.7057C44.478 19.6733 44.2647 18.5823 44.2378 17.4788C44.2378 17.1086 44.2042 16.7004 44.1958 16.2545C44.1873 15.8085 44.1958 15.3457 44.1958 14.8788C44.1958 14.4118 44.1958 13.9574 44.1958 13.5072C44.1958 13.057 44.221 12.6658 44.2378 12.2787" fill="white"></path><path d="M70.9671 13.1624C70.473 13.1484 69.9811 13.2329 69.5199 13.4106C69.147 13.5578 68.8057 13.7748 68.5143 14.0501C68.2503 14.3006 68.0361 14.599 67.8833 14.9294C67.7482 15.2203 67.6561 15.5292 67.6098 15.8465H74.2066C74.1644 15.5343 74.0911 15.227 73.9879 14.9294C73.8788 14.6014 73.6993 14.3013 73.4619 14.0501C73.1908 13.7697 72.8621 13.5516 72.4985 13.4106C72.0093 13.2282 71.4889 13.1439 70.9671 13.1624ZM63.8149 17.542C63.8073 16.4949 63.9751 15.454 64.3113 14.4624C64.6172 13.535 65.1034 12.6771 65.7418 11.9381C66.37 11.2247 67.1411 10.6513 68.0053 10.2552C68.9313 9.84142 69.936 9.6333 70.9503 9.64517C71.9633 9.63222 72.9674 9.83591 73.8953 10.2426C74.7649 10.6214 75.5469 11.1757 76.1924 11.8708C76.8252 12.5564 77.317 13.3598 77.6397 14.2352C77.9821 15.1457 78.156 16.1107 78.153 17.0834V18.3961C78.1497 18.6048 78.0653 18.8042 77.9177 18.9518C77.7701 19.0994 77.5707 19.1838 77.362 19.1871H67.6098C67.5999 19.5978 67.694 20.0045 67.8833 20.3693C68.0692 20.7006 68.3246 20.9876 68.6321 21.2107C68.956 21.4503 69.321 21.6285 69.7091 21.7366C70.1201 21.8511 70.5447 21.9091 70.9713 21.9091C71.4843 21.9236 71.9963 21.8597 72.4901 21.7198C72.8359 21.6151 73.1616 21.453 73.4535 21.2401C73.617 21.114 73.7932 21.0055 73.9794 20.9162C74.1567 20.8499 74.3456 20.8199 74.5348 20.8278H76.8698C77.0834 20.8308 77.2881 20.9151 77.4419 21.0634C77.5195 21.1323 77.5797 21.2185 77.6176 21.3149C77.6556 21.4115 77.6704 21.5156 77.6607 21.6187C77.5951 22.0005 77.4394 22.3612 77.2064 22.6706C76.8647 23.1636 76.4373 23.5912 75.9442 23.9327C75.2972 24.3827 74.5888 24.7369 73.8406 24.9845C72.9122 25.2874 71.939 25.4296 70.9629 25.4052C69.953 25.4165 68.9512 25.2233 68.0178 24.8373C67.148 24.4772 66.3691 23.9282 65.7376 23.2302C65.0998 22.5001 64.6136 21.6507 64.3071 20.7311C63.9647 19.7004 63.7968 18.6196 63.8107 17.5336" fill="white"></path><path d="M85.1462 19.6454C85.1184 20.1704 85.2913 20.6864 85.63 21.0885C85.9497 21.4503 86.5471 21.6312 87.4265 21.6312H89.2061C89.4145 21.6334 89.6138 21.7168 89.7615 21.8637C89.9092 22.0107 89.9937 22.2096 89.9971 22.4179V24.3448C89.9938 24.5536 89.9094 24.7529 89.7618 24.9005C89.6142 25.0482 89.4148 25.1325 89.2061 25.1358H87.0436C85.2121 25.1358 83.8097 24.6926 82.8364 23.8063C81.8632 22.92 81.3724 21.5625 81.364 19.7338V13.4524H79.4202C79.317 13.4538 79.2147 13.4335 79.1197 13.393C79.0248 13.3523 78.9395 13.2924 78.8691 13.2168C78.7929 13.1469 78.7325 13.0617 78.6919 12.9666C78.6513 12.8717 78.6314 12.7691 78.6334 12.6657V10.7347C78.6321 10.6314 78.6525 10.5291 78.693 10.4341C78.7336 10.3393 78.7935 10.2539 78.8691 10.1835C78.94 10.1088 79.0256 10.0493 79.1204 10.0088C79.2151 9.96832 79.3172 9.94758 79.4202 9.94788H81.3513V5.18536C81.3546 4.97772 81.4385 4.77949 81.5853 4.63266C81.7322 4.48581 81.9304 4.40187 82.1381 4.39862H84.3594C84.5671 4.40187 84.7653 4.48581 84.9121 4.63266C85.059 4.77949 85.143 4.97772 85.1462 5.18536V9.94788H88.9327C89.1343 9.95956 89.3242 10.0472 89.4638 10.1932C89.6036 10.3392 89.6828 10.5326 89.6857 10.7347V12.6657C89.6825 12.8733 89.5985 13.0715 89.4516 13.2184C89.3049 13.3653 89.1067 13.4492 88.8989 13.4524H85.1125L85.1462 19.6454Z" fill="white"></path><path d="M104.337 17.5126L101.122 9.18656L97.9115 17.5126H104.337ZM102.729 4.6891C102.857 4.67978 102.986 4.69703 103.107 4.73975C103.228 4.78247 103.338 4.84973 103.432 4.93732C103.62 5.15532 103.763 5.40842 103.852 5.68199L111.005 24.143C111.025 24.2086 111.034 24.2767 111.034 24.345C111.032 24.5538 110.947 24.753 110.8 24.9007C110.652 25.0484 110.453 25.1327 110.244 25.136H108.14C107.994 25.1512 107.845 25.1372 107.705 25.0945C107.564 25.0519 107.433 24.9815 107.32 24.8877C107.182 24.7491 107.074 24.5847 107 24.4039L105.738 21.1643H96.5109L95.2482 24.4039C95.1746 24.5847 95.0665 24.7491 94.9285 24.8877C94.8158 24.9815 94.6844 25.0519 94.5437 25.0945C94.403 25.1372 94.2548 25.1512 94.1085 25.136H92.0046C91.7966 25.1316 91.5983 25.0468 91.4516 24.8993C91.3049 24.7517 91.221 24.5531 91.2179 24.345C91.2161 24.2765 91.2261 24.2082 91.2473 24.143L98.3998 5.68199C98.4893 5.40842 98.6328 5.15532 98.821 4.93732C98.9142 4.84973 99.0251 4.78247 99.1463 4.73975C99.2665 4.69703 99.3951 4.67978 99.5237 4.6891H102.729Z" fill="white"></path><path d="M123.526 18.3582C123.585 17.8156 123.585 17.2683 123.526 16.7258C123.413 15.4636 123.021 14.5465 122.361 13.9953C121.681 13.4314 120.82 13.1325 119.938 13.1539C119.057 13.1262 118.198 13.426 117.527 13.9953C117.189 14.3052 116.916 14.6789 116.723 15.0948C116.53 15.5107 116.422 15.9606 116.403 16.4187C116.358 16.7872 116.339 17.1583 116.344 17.5293C116.339 17.9005 116.358 18.2716 116.403 18.6401C116.454 19.5533 116.857 20.4114 117.527 21.034C118.189 21.6219 119.051 21.9349 119.938 21.909C120.82 21.9305 121.681 21.6316 122.361 21.0676C123.021 20.5164 123.413 19.6035 123.526 18.3371V18.3582ZM120.821 25.4263C120.276 25.4321 119.733 25.3743 119.201 25.2538C118.767 25.1568 118.344 25.0158 117.939 24.833C117.616 24.6708 117.313 24.4732 117.034 24.244C116.816 24.0714 116.612 23.8814 116.424 23.6761V29.8943C116.421 30.103 116.337 30.3023 116.189 30.45C116.041 30.5976 115.842 30.6819 115.633 30.6852H113.416C113.208 30.6819 113.008 30.5976 112.861 30.45C112.713 30.3023 112.629 30.103 112.625 29.8943V10.7348C112.63 10.5268 112.715 10.3285 112.862 10.1818C113.009 10.0351 113.208 9.95127 113.416 9.94804H115.633C115.841 9.95127 116.04 10.0351 116.188 10.1818C116.335 10.3285 116.42 10.5268 116.424 10.7348V11.4079C116.612 11.2026 116.816 11.0126 117.034 10.84C117.319 10.6156 117.628 10.4236 117.956 10.2678C118.361 10.085 118.784 9.94405 119.218 9.84707C119.749 9.72655 120.293 9.66865 120.838 9.67458C121.75 9.66138 122.653 9.85559 123.48 10.2425C124.248 10.6063 124.934 11.1232 125.495 11.7613C126.059 12.409 126.505 13.151 126.812 13.9533C127.132 14.7789 127.314 15.6517 127.35 16.5365C127.371 16.8268 127.38 17.1676 127.38 17.5588C127.38 17.9501 127.38 18.2909 127.35 18.5812C127.314 19.466 127.132 20.3388 126.812 21.1644C126.505 21.9666 126.059 22.7086 125.495 23.3563C124.934 23.9944 124.248 24.5112 123.48 24.875C122.647 25.2588 121.737 25.4472 120.821 25.4263Z" fill="white"></path><path d="M140.036 18.3582C140.094 17.8156 140.094 17.2683 140.036 16.7258C139.918 15.4636 139.532 14.5465 138.866 13.9953C138.188 13.4301 137.326 13.1309 136.443 13.1539C135.563 13.1262 134.704 13.4261 134.032 13.9953C133.694 14.3052 133.421 14.6789 133.228 15.0948C133.035 15.5107 132.927 15.9606 132.909 16.4187C132.867 16.7874 132.846 17.1583 132.85 17.5293C132.846 17.9005 132.866 18.2714 132.909 18.6401C132.96 19.5533 133.362 20.4114 134.032 21.034C134.695 21.622 135.557 21.9349 136.443 21.909C137.326 21.932 138.188 21.6329 138.866 21.0676C139.532 20.5165 139.918 19.6035 140.036 18.3372V18.3582ZM137.318 25.4052C136.773 25.4109 136.23 25.353 135.699 25.2327C135.264 25.135 134.841 24.994 134.436 24.812C134.11 24.6561 133.802 24.4643 133.519 24.2398C133.3 24.0671 133.094 23.8772 132.905 23.6719V29.8943C132.906 29.998 132.884 30.1008 132.844 30.1962C132.804 30.2917 132.745 30.3779 132.669 30.4496C132.598 30.5245 132.513 30.5841 132.418 30.6246C132.323 30.6651 132.221 30.6857 132.118 30.6852H129.897C129.688 30.6819 129.49 30.5974 129.342 30.4497C129.196 30.3019 129.112 30.1027 129.11 29.8943V10.7348C129.113 10.5271 129.197 10.3289 129.344 10.1821C129.49 10.0352 129.689 9.95131 129.897 9.94805H132.118C132.325 9.95235 132.523 10.0366 132.67 10.1832C132.816 10.3299 132.9 10.5275 132.905 10.7348V11.408C133.094 11.2027 133.3 11.0127 133.519 10.84C133.802 10.6156 134.11 10.4236 134.436 10.2678C134.841 10.0857 135.264 9.94476 135.699 9.84708C136.23 9.72679 136.773 9.6689 137.318 9.67458C138.232 9.66134 139.136 9.85553 139.965 10.2426C140.732 10.608 141.417 11.1246 141.98 11.7613C142.542 12.4092 142.987 13.1511 143.293 13.9533C143.613 14.7789 143.795 15.6517 143.831 16.5365C143.852 16.8268 143.86 17.1676 143.86 17.5588C143.86 17.9501 143.86 18.2909 143.831 18.5812C143.795 19.466 143.613 20.3388 143.293 21.1644C142.987 21.9664 142.542 22.7085 141.98 23.3563C141.417 23.9931 140.732 24.5097 139.965 24.8751C139.136 25.2622 138.232 25.4563 137.318 25.443" fill="white"></path></g></g><defs><clipPath id="clip0_1_755"><rect width="143.511" height="29.8204" fill="white" transform="translate(0.489136 0.932007)"></rect></clipPath></defs></svg>