<svg xmlns="http://www.w3.org/2000/svg" width="56" height="56" viewBox="0 0 56 56" fill="none"><rect width="56" height="56" rx="28" fill="#08A8E4"></rect><path d="M43.4328 31.9979C43.5709 31.2543 43.5709 30.4949 43.4328 29.7514L44.8034 28.9656C44.9628 28.876 45.0319 28.6914 44.9787 28.5174C44.6228 27.3783 44.0119 26.3447 43.215 25.4904C43.0928 25.3586 42.8963 25.327 42.7369 25.4166L41.3662 26.2023C40.7872 25.7119 40.1231 25.3322 39.4059 25.0791V23.5076C39.4059 23.3283 39.2784 23.1701 39.1031 23.1332C37.9184 22.8695 36.7125 22.8801 35.5863 23.1332C35.4109 23.1701 35.2834 23.3283 35.2834 23.5076V25.0791C34.5663 25.3322 33.9022 25.7119 33.3231 26.2023L31.9525 25.4166C31.7984 25.327 31.5966 25.3586 31.4744 25.4904C30.6775 26.3447 30.0666 27.3783 29.7106 28.5174C29.6575 28.6914 29.7319 28.876 29.8859 28.9656L31.2566 29.7514C31.1184 30.4949 31.1184 31.2543 31.2566 31.9979L29.8859 32.7836C29.7266 32.8732 29.6575 33.0578 29.7106 33.2318C30.0666 34.3709 30.6775 35.3992 31.4744 36.2588C31.5966 36.3906 31.7931 36.4223 31.9525 36.3326L33.3231 35.5469C33.9022 36.0373 34.5663 36.417 35.2834 36.6701V38.2416C35.2834 38.4209 35.4109 38.5791 35.5863 38.616C36.7709 38.8797 37.9769 38.8691 39.1031 38.616C39.2784 38.5791 39.4059 38.4209 39.4059 38.2416V36.6701C40.1231 36.417 40.7872 36.0373 41.3662 35.5469L42.7369 36.3326C42.8909 36.4223 43.0928 36.3906 43.215 36.2588C44.0119 35.4045 44.6228 34.3709 44.9787 33.2318C45.0319 33.0578 44.9575 32.8732 44.8034 32.7836L43.4328 31.9979ZM37.35 33.4322C35.9263 33.4322 34.7734 32.2826 34.7734 30.8746C34.7734 29.4666 35.9316 28.317 37.35 28.317C38.7684 28.317 39.9266 29.4666 39.9266 30.8746C39.9266 32.2826 38.7738 33.4322 37.35 33.4322ZM16.1 25.8121C17.9753 25.8121 19.5 24.2986 19.5 22.4371C19.5 20.5756 17.9753 19.0621 16.1 19.0621C14.2247 19.0621 12.7 20.5756 12.7 22.4371C12.7 24.2986 14.2247 25.8121 16.1 25.8121ZM28 27.4996C28.1009 27.4996 28.1966 27.4732 28.2975 27.468C28.7384 26.3236 29.3866 25.2479 30.2259 24.3461C30.6191 23.9242 31.1769 23.6816 31.7612 23.6816C32.1278 23.6816 32.4891 23.7766 32.8025 23.9611L33.2222 24.2037C33.2647 24.1773 33.3072 24.1562 33.3497 24.1299C33.7216 23.36 33.9447 22.5057 33.9447 21.5986C33.9447 18.3344 31.2831 15.6924 27.9947 15.6924C24.7063 15.6924 22.05 18.3291 22.05 21.5934C22.05 24.8576 24.7116 27.4996 28 27.4996ZM33.5888 37.7564C33.4666 37.6932 33.3444 37.6193 33.2275 37.5508C32.7919 37.8039 32.4147 38.0676 31.7666 38.0676C31.1875 38.0676 30.6297 37.825 30.2313 37.4031C29.2591 36.359 28.5153 35.0881 28.0956 33.7328C27.5272 31.9135 29.4184 31.1119 29.4663 31.0803C29.4609 30.9432 29.4609 30.8061 29.4663 30.6689L29.0466 30.4264C28.8447 30.3104 28.6747 30.1627 28.5259 29.9992C28.3506 30.0098 28.1806 30.0309 28.0053 30.0309C26.6984 30.0309 25.4766 29.7145 24.3663 29.1871H23.9253C20.5413 29.1871 17.8 31.9082 17.8 35.2621V36.7809C17.8 38.1783 18.9422 39.3121 20.35 39.3121H33.9181C33.7216 38.9957 33.5888 38.6371 33.5888 38.2416V37.7564ZM20.1959 28.4805C19.5797 27.874 18.735 27.4996 17.8 27.4996H14.4C12.5247 27.4996 11 29.0131 11 30.8746V32.5621C11 33.4955 11.7597 34.2496 12.7 34.2496H16.2009C16.5356 31.75 18.055 29.6459 20.1959 28.4805Z" fill="white"></path></svg>