<svg xmlns="http://www.w3.org/2000/svg" width="56" height="56" viewBox="0 0 56 56" fill="none"><rect width="56" height="56" rx="28" fill="#08A8E4"></rect><path fill-rule="evenodd" clip-rule="evenodd" d="M25.1667 16.667H30.8334C36.1756 16.667 38.8475 16.667 40.5064 18.3273C42.1653 19.9877 42.1667 22.6581 42.1667 28.0003C42.1667 33.3426 42.1667 36.0144 40.5064 37.6733C38.846 39.3322 36.1756 39.3337 30.8334 39.3337H25.1667C19.8245 39.3337 17.1526 39.3337 15.4937 37.6733C13.8348 36.013 13.8334 33.3426 13.8334 28.0003C13.8334 22.6581 13.8334 19.9862 15.4937 18.3273C17.154 16.6684 19.8245 16.667 25.1667 16.667ZM29.7709 23.7503C29.7709 23.4685 29.8828 23.1983 30.0821 22.999C30.2813 22.7998 30.5516 22.6878 30.8334 22.6878H37.9167C38.1985 22.6878 38.4688 22.7998 38.668 22.999C38.8673 23.1983 38.9792 23.4685 38.9792 23.7503C38.9792 24.0321 38.8673 24.3024 38.668 24.5016C38.4688 24.7009 38.1985 24.8128 37.9167 24.8128H30.8334C30.5516 24.8128 30.2813 24.7009 30.0821 24.5016C29.8828 24.3024 29.7709 24.0321 29.7709 23.7503ZM31.1875 28.0003C31.1875 27.7185 31.2995 27.4483 31.4987 27.249C31.698 27.0498 31.9682 26.9378 32.25 26.9378H37.9167C38.1985 26.9378 38.4688 27.0498 38.668 27.249C38.8673 27.4483 38.9792 27.7185 38.9792 28.0003C38.9792 28.2821 38.8673 28.5524 38.668 28.7516C38.4688 28.9509 38.1985 29.0628 37.9167 29.0628H32.25C31.9682 29.0628 31.698 28.9509 31.4987 28.7516C31.2995 28.5524 31.1875 28.2821 31.1875 28.0003ZM32.6042 32.2503C32.6042 31.9685 32.7162 31.6983 32.9154 31.499C33.1147 31.2998 33.3849 31.1878 33.6667 31.1878H37.9167C38.1985 31.1878 38.4688 31.2998 38.668 31.499C38.8673 31.6983 38.9792 31.9685 38.9792 32.2503C38.9792 32.5321 38.8673 32.8024 38.668 33.0016C38.4688 33.2009 38.1985 33.3128 37.9167 33.3128H33.6667C33.3849 33.3128 33.1147 33.2009 32.9154 33.0016C32.7162 32.8024 32.6042 32.5321 32.6042 32.2503ZM26.5834 23.7503C26.5834 24.5018 26.2849 25.2224 25.7535 25.7538C25.2222 26.2851 24.5015 26.5837 23.75 26.5837C22.9986 26.5837 22.2779 26.2851 21.7466 25.7538C21.2152 25.2224 20.9167 24.5018 20.9167 23.7503C20.9167 22.9989 21.2152 22.2782 21.7466 21.7469C22.2779 21.2155 22.9986 20.917 23.75 20.917C24.5015 20.917 25.2222 21.2155 25.7535 21.7469C26.2849 22.2782 26.5834 22.9989 26.5834 23.7503ZM23.75 35.0837C29.4167 35.0837 29.4167 33.8157 29.4167 32.2503C29.4167 30.6849 26.8809 29.417 23.75 29.417C20.6192 29.417 18.0834 30.6849 18.0834 32.2503C18.0834 33.8157 18.0834 35.0837 23.75 35.0837Z" fill="white"></path></svg>